<svg width="512" height="512" xmlns="http://www.w3.org/2000/svg" xmlns:xlink="http://www.w3.org/1999/xlink"><style>#t:target~use{opacity:.1}#u:target~use{opacity:.3}</style><defs><path d="M26 256a230 230 0 10460 0" id="a"/><path d="M58 256a198 198 0 01396 0" id="b"/><g id="c"><circle cx="256" cy="256" r="249.5" fill="#3c3185" stroke="#ffd800" stroke-width="11"/><circle cx="256" cy="256" r="180" fill="#3b5998" stroke="#fee006" stroke-width="12"/><g fill="none" stroke="#FFD800" stroke-width="3"><path d="M327 107c27 12 45 37 40 54s-31 21-58 8c-28-13-45-37-40-54s31-21 58-8"/><path d="M371 116c32 30 53 67 50 101-3 54-61 78-129 53-68-24-120-87-117-140 2-19 9-34 22-45"/><path d="M425 322c-20 17-48 28-81 29-92 4-195-63-229-150-6-15-9-29-11-43m216 267c-90 2-188-57-243-143m70-166c87-41 213 6 281 103a279 279 0 017 11"/><path d="M140 394c-3-9-4-19-5-29-7-104 66-210 165-235 30-8 60-8 86 0"/><path d="M308 107c60 75 56 197-9 272-25 28-55 46-86 53m63-355c11 8 22 18 32 30"/></g><g fill="#FFD800"><g style="font:700 49px Arial,serif" text-anchor="middle"><text dx="0 10 10 10 10 10 10 10 10 10 10 10 10 10 10 10"><textPath xlink:href="#a" startOffset="50%">PRO BONO PUBLICO</textPath></text><text dx="0 7 7 7 7 7 7 7 7 7 7"><textPath xlink:href="#b" startOffset="50%">МИРОТВОРЕЦЬ</textPath></text></g><path d="M288 162c-3 2-6 2-8 0l-3-1-1 2v1l-1 1c0 3-1 4-2 4h-6l-4-1-4-1-3 1c-1 2-1 3-2 1-1-1-5-1-5 2l-1 1-1 1-2 2-1 2-2 3v2l2 7-1 2-1 2-2-1-2-2-1-3h-10c-1-2-1-2-3 0l-2 2h-2l-1-2-1-2-3-3-2 1c-2 0-4 2-4 4s0 2-1 1l-1-2-2-2h-3l-1-1c-2-2-2-2-3-1-1 2-4 2-4 1h-2c1 2-2 4-2 3v-2l-6-1h-3l-1-3v-2h-4c-3 1-3 0-4-1l-3-1h-3l-3-1-2-1-7-1h-13l-7 2c-6 0-7 0-7 3l-2 2-2 2c-1 1-3 2-5 0h-3c-2 1-1 1 0 1v9l4 5 3 7c2 0 2 1 0 1v4l1 2c1 1 0 3-1 5s-2 2-3 2c-2 0-3 1-7 5l-9 11-4 6-2 2v3c2 2 2 4 1 6 0 1 0 2 2 3l1 2h-5c-1-1-1 0-1 1l-1 1-3 6-2 4c-1 2-3 7-1 6l2 2 3 3 2 2c0 1 1 2 2 1 3 0 3 1 3 3l1 2 1-1 1-1 2-1 2-1 1 1 6 2 4 1h2l3 1h5c2-2 5-1 5 0l2 2 2 2c2 1 5 1 6-2 2-2 3-2 8-2l4-1 3-1 4-1 2-3c1-1 1-2 3-2l3-2c1-2 1-2 2-1h1l-1-1c-1-2 0-2 2-1s4 1 3-1h1l2 1c1 1 2 0 2-1h4c1-2 5-1 7 1l2 2 2 1v1h1l2 1h2l-1 1h1c1 0 2 0 1 1-1 2 1 2 2 0s0-1 3-1l3 2v3l4 1c0-2 2-1 2 0l1 1v1c-1 2-2 2 0 2v4l-2 3v1h1l1 2h1l1 1v2l1 1 2-2h1v4l-1 2 1 1v3l1 1 2 2h3v1l1 4-1 4 3 3c2 1 1 1-2 1l-3-1-1-1-1 2-1 1-2-3h-3l-1 1-1 1v-4h-2l-1 2-2 1v3l1 3v2l-1 2-2 2c-2 0-2 0-2 2 0 1-1 4-3 4l-1 1-1 2-1 4-2-1h-1l1 5c1 1 9 4 8 2-1-1 1-2 2-1h2l7-4c3 0 6 2 6 4v2l1-3-1-3c-2 0 0-2 5-7l6-6 3-2 2-4 3-6c2-1 2-1 1-2s-1-2 3-3l10-1 8-1 2 1 3 1c2 0 4 2 2 3h-4l-4-1-4-1h-2l2 1 1 1h3l3 1v1l-2 2c-2 0-3 1-1 1h3l1 2 3 1 3 2h5l4-1h7l2 2 2-1 2-1c1-1 1 0 1 3l1 2v1l-2 1-4 2-3 1-7 4-1 1c-2 1-5 3-5 5s2 2 4 1 4-1 6 1c2 3 3 3 5 3s4 2 5 4v5l-1 4-1 2h-1c0 2 1 3 3 3h1c0 3 7 3 9 1l1-1 4-4c0-2 3-4 7-4h4c1 1 2 0 3-2l1-1 1-1h1l1-2 2-2h3l3 2h4c7 0 7-1 7-4l1-3v-1h2l1-1-6-3-4 1c-2 2-4 2-4 0-1-1-1-1-2 1l-3 3-3-1-3-3-1-3c-2-1-6-6-6-8v-2l-1-2c0-3-1-4-1-2v1l-2-1-1-1 3-1h1l2-2c2-1 4-2 5-5l1 1c0 2 1 2 3 0l2-2 3-2c3-3 3-3 6-3h6c1-2 7-4 8-2h1c1-2 3-4 5-4l1-1h2c1 1 1 1 2-1l1-1c1-2 3-3 9-3 7 0 6 0 7-10 0-2 1-4 4-4l2-1 1-1 2-2v-3h9l9 1v-5l2-1v-1l1-2v-1l1-2-1-1v-1l-1-2v-3l-3-2c-2 0-2 0-1-1l1-3c1-2 2-2 3-2l2-1c2-1 2-2-1-1l-3-1-1-2c-2 0 0-1 2-2l2-1 3-3c2-1 2-4 0-5-2-2-2-3 0-5v-1l-3 1-3-1-3-2c-1-2-2-3-4-2s-3-1-3-3l-1-1-1 1h-5l-2-2-4-2-3-1c-1-3-4-2-4 1v2c-1 1-2 0-3-1l-1-2-2-1-4-5-1-3-2-1c0-2-1-2-3-1l-4 1c-2 0-3 1-5 3l-4 1-3-2-3-2-4-2-4 1c-1 2-4 1-4 0l-2-2c-1-1-2-3-1-7v-2l-1-3v-4c1 0 0-2-2-1-1 0-2 0-2-2-2-3-2-3-5-2-1 1-4 0-4-1l-4-1c-4 0-4 0-3-2v-4l-2-4c0-1-2-2-1-3h2l4-2-3-4c-4-3-5-5-4-6l-1-3-1-1-2-2c-1-1-3-2-5 0h-2l-3-1c-2-1-2 0-5 1m23 173v2-2c0-2 0-2 2-1l1 1h1c1-1 2 0 2 1h-3v3c1 1 2 1 3-1h3l1 4v2l3 3 7 9 1 3h-1l-4-2-2-3c2-1 0-4-1-5h-2v-1c0-2-1-2-3-1h-1c2-1 2-3 0-2v-1c0-2 0-1-2 0l-1 1 1-1c1-2 2-3 1-4h-1v2l-2-1-3-2h-1l-1-1h-1l-2-1-2 1c-1 1-1 1-1-1l-1-2v1h-1v-3l5 2v1h1l2-1h-1l1-1v-2l2 3m-2 6l-1-1h1v1"/></g></g></defs><g id="t"/><g id="u"/><use xlink:href="#c"/></svg>